<svg width="520" height="465" viewBox="0 0 520 465" fill="none" xmlns="http://www.w3.org/2000/svg">
<g clip-path="url(#clip0_4_204)">
<path d="M46.9809 160.427H11.5662C8.50078 160.434 5.56295 161.654 3.39539 163.821C1.22783 165.988 0.00700662 168.924 0 171.988C0 175.055 1.21857 177.995 3.38765 180.164C5.55673 182.332 8.49863 183.55 11.5662 183.55H46.9809C50.0485 183.55 52.9904 182.332 55.1594 180.164C57.3285 177.995 58.5471 175.055 58.5471 171.988C58.5471 168.922 57.3285 165.982 55.1594 163.813C52.9904 161.645 50.0485 160.427 46.9809 160.427Z" fill="url(#paint0_linear_4_204)"/>
<path d="M519.947 465H384.946L188.348 268.563H124.336C121.266 268.556 118.325 267.332 116.156 265.16C113.988 262.987 112.77 260.044 112.77 256.975C112.768 254.729 113.433 252.532 114.68 250.664C115.1 249.996 115.598 249.382 116.166 248.834C117.231 247.748 118.502 246.886 119.905 246.299C121.309 245.711 122.815 245.41 124.336 245.414H237.77C240.84 245.414 243.784 244.197 245.958 242.029C248.131 239.862 249.355 236.921 249.362 233.852C249.362 230.786 248.144 227.845 245.975 225.677C243.806 223.509 240.864 222.291 237.796 222.291H68.0176C66.5022 222.294 65.001 222 63.5996 221.423C62.1982 220.847 60.9241 220 59.8501 218.931C58.7761 217.863 57.9231 216.593 57.34 215.195C56.7569 213.797 56.4549 212.297 56.4515 210.783C56.4516 208.59 57.0874 206.444 58.2819 204.604C58.7141 203.868 59.2502 203.199 59.8736 202.615C61.605 200.864 63.8572 199.72 66.2933 199.354H319.184C325.64 199.368 332.034 198.107 338.001 195.644C343.968 193.181 349.39 189.564 353.955 185.001C358.52 180.438 362.138 175.019 364.602 169.054C367.066 163.09 368.327 156.698 368.313 150.245V137.676C368.32 131.223 367.055 124.833 364.588 118.87C362.122 112.907 358.504 107.489 353.941 102.925C349.378 98.3615 343.959 94.7419 337.995 92.2735C332.031 89.8051 325.639 88.5364 319.184 88.5399H124.681C121.805 88.1002 119.201 86.5906 117.391 84.3136C115.581 82.0365 114.698 79.16 114.92 76.26C115.141 73.3601 116.45 70.6507 118.585 68.6745C120.72 66.6983 123.522 65.6012 126.432 65.6028H86.5606C83.4974 65.5888 80.5636 64.3663 78.3975 62.2011C76.2315 60.0359 75.0084 57.1034 74.9945 54.0414C75.0352 50.9842 76.251 48.0598 78.39 45.8742C78.8682 45.3912 79.3924 44.9561 79.9552 44.5749C81.8809 43.1915 84.1893 42.4409 86.5606 42.427H126.352C129.42 42.427 132.362 41.2089 134.531 39.0408C136.7 36.8726 137.919 33.9319 137.919 30.8656C137.919 27.7994 136.7 24.8587 134.531 22.6905C132.362 20.5224 129.42 19.3043 126.352 19.3043H40.2164C37.6484 19.3043 35.1855 18.2846 33.3697 16.4695C31.5538 14.6544 30.5337 12.1926 30.5337 9.62563C30.5489 8.11587 30.9313 6.63247 31.6479 5.30338C32.0963 4.41592 32.6778 3.60218 33.3722 2.89034C34.2628 1.97711 35.3271 1.251 36.5024 0.754654C37.6778 0.258307 38.9405 0.00173173 40.2164 0L344.359 0C348.126 0 351.866 0.159101 355.554 0.397753C391.704 3.22125 425.46 19.5695 450.082 46.1789C474.703 72.7882 488.379 107.701 488.379 143.947C488.379 180.193 474.703 215.106 450.082 241.715C425.46 268.324 391.704 284.672 355.554 287.496C351.866 287.761 348.126 287.894 344.359 287.894H342.847L519.947 465Z" fill="url(#paint1_linear_4_204)"/>
<path d="M206.705 302.266V465H79.9551V287.92H192.327L206.705 302.266Z" fill="url(#paint2_linear_4_204)"/>
<path d="M109.534 163.821C108.448 164.887 107.587 166.158 106.999 167.56C106.412 168.963 106.11 170.468 106.112 171.988C106.112 175.055 107.33 177.995 109.499 180.164C111.668 182.332 114.61 183.55 117.678 183.55H206.679V160.427H117.704C116.185 160.422 114.68 160.719 113.277 161.302C111.874 161.885 110.602 162.741 109.534 163.821Z" fill="url(#paint3_linear_4_204)"/>
<path d="M206.679 138.736V115.614H191.876C188.806 115.642 185.873 116.886 183.719 119.073C181.566 121.26 180.368 124.212 180.39 127.281C180.39 130.343 181.605 133.279 183.768 135.447C185.931 137.614 188.866 138.835 191.929 138.842L206.679 138.736Z" fill="url(#paint4_linear_4_204)"/>
<path d="M132.852 115.614H57.7513C56.2244 115.617 54.7133 115.922 53.3046 116.511C51.896 117.1 50.6176 117.961 49.5429 119.045C48.4682 120.129 47.6183 121.415 47.0421 122.828C46.4658 124.242 46.1746 125.755 46.1851 127.281C46.1851 130.347 47.4037 133.288 49.5727 135.456C51.7418 137.624 54.6837 138.842 57.7513 138.842H132.852C135.919 138.842 138.861 137.624 141.03 135.456C143.199 133.288 144.418 130.347 144.418 127.281C144.418 124.215 143.199 121.274 141.03 119.106C138.861 116.938 135.919 115.72 132.852 115.72V115.614Z" fill="url(#paint5_linear_4_204)"/>
</g>
<defs>
<linearGradient id="paint0_linear_4_204" x1="-32.4171" y1="171.988" x2="509.734" y2="171.988" gradientUnits="userSpaceOnUse">
<stop stop-color="#DDDBFF"/>
<stop offset="1" stop-color="#2F27CE"/>
</linearGradient>
<linearGradient id="paint1_linear_4_204" x1="-32.417" y1="232.5" x2="509.734" y2="232.5" gradientUnits="userSpaceOnUse">
<stop stop-color="#DDDBFF"/>
<stop offset="1" stop-color="#2F27CE"/>
</linearGradient>
<linearGradient id="paint2_linear_4_204" x1="-32.4171" y1="376.46" x2="509.734" y2="376.46" gradientUnits="userSpaceOnUse">
<stop stop-color="#DDDBFF"/>
<stop offset="1" stop-color="#2F27CE"/>
</linearGradient>
<linearGradient id="paint3_linear_4_204" x1="-32.4172" y1="171.988" x2="509.734" y2="171.988" gradientUnits="userSpaceOnUse">
<stop stop-color="#DDDBFF"/>
<stop offset="1" stop-color="#2F27CE"/>
</linearGradient>
<linearGradient id="paint4_linear_4_204" x1="-32.4172" y1="127.175" x2="509.734" y2="127.175" gradientUnits="userSpaceOnUse">
<stop stop-color="#DDDBFF"/>
<stop offset="1" stop-color="#2F27CE"/>
</linearGradient>
<linearGradient id="paint5_linear_4_204" x1="-32.4171" y1="127.175" x2="509.734" y2="127.175" gradientUnits="userSpaceOnUse">
<stop stop-color="#DDDBFF"/>
<stop offset="1" stop-color="#2F27CE"/>
</linearGradient>
<clipPath id="clip0_4_204">
<rect width="520" height="465" fill="white"/>
</clipPath>
</defs>
</svg>
