<svg width="512" height="512" viewBox="0 0 512 512" fill="none" xmlns="http://www.w3.org/2000/svg">
<g clip-path="url(#clip0_64_80)" filter="url(#filter0_i_64_80)">
<path d="M46.2629 176.642H11.3894C8.37086 176.65 5.47793 177.994 3.3435 180.379C1.20906 182.765 0.00689953 185.998 0 189.371C0 192.747 1.19995 195.985 3.33587 198.372C5.4718 200.759 8.36873 202.1 11.3894 202.1H46.2629C49.2835 202.1 52.1804 200.759 54.3164 198.372C56.4523 195.985 57.6522 192.747 57.6522 189.371C57.6522 185.995 56.4523 182.758 54.3164 180.371C52.1804 177.983 49.2835 176.642 46.2629 176.642Z" fill="#D6D6F5"/>
<path d="M512 512H379.063L185.469 295.708H122.436C119.413 295.7 116.516 294.353 114.381 291.961C112.246 289.569 111.046 286.328 111.046 282.949C111.044 280.476 111.699 278.057 112.927 276C113.34 275.265 113.832 274.588 114.39 273.985C115.439 272.79 116.691 271.84 118.073 271.194C119.454 270.547 120.938 270.215 122.436 270.219H234.135C237.159 270.219 240.058 268.879 242.198 266.492C244.338 264.106 245.544 260.868 245.551 257.489C245.551 254.113 244.351 250.875 242.215 248.488C240.079 246.1 237.182 244.759 234.162 244.759H66.9779C65.4857 244.763 64.0074 244.438 62.6274 243.804C61.2474 243.169 59.9928 242.236 58.9352 241.06C57.8776 239.883 57.0377 238.485 56.4635 236.946C55.8893 235.406 55.592 233.755 55.5885 232.088C55.5887 229.673 56.2147 227.31 57.391 225.285C57.8166 224.474 58.3445 223.737 58.9583 223.095C60.6633 221.166 62.8811 219.906 65.28 219.504H314.305C320.662 219.519 326.959 218.131 332.835 215.419C338.711 212.707 344.05 208.725 348.545 203.7C353.04 198.676 356.603 192.709 359.029 186.142C361.456 179.574 362.698 172.536 362.684 165.431V151.591C362.691 144.487 361.444 137.45 359.016 130.885C356.587 124.319 353.025 118.353 348.531 113.328C344.038 108.303 338.702 104.318 332.829 101.6C326.956 98.8822 320.662 97.4852 314.305 97.489H122.775C119.943 97.0049 117.379 95.3428 115.597 92.8356C113.814 90.3284 112.945 87.1611 113.163 83.968C113.381 80.775 114.67 77.7918 116.772 75.6158C118.874 73.4399 121.634 72.2318 124.5 72.2336H85.2375C82.2211 72.2182 79.3321 70.8721 77.1992 68.4881C75.0662 66.1041 73.8619 62.8751 73.8481 59.5036C73.8883 56.1374 75.0855 52.9175 77.1918 50.5109C77.6627 49.9792 78.1789 49.5 78.733 49.0803C80.6293 47.5571 82.9024 46.7306 85.2375 46.7153H124.421C127.442 46.7153 130.339 45.3741 132.475 42.9868C134.611 40.5995 135.811 37.3616 135.811 33.9854C135.811 30.6092 134.611 27.3713 132.475 24.984C130.339 22.5967 127.442 21.2555 124.421 21.2555H39.6016C37.0728 21.2555 34.6476 20.1327 32.8595 18.1341C31.0714 16.1356 30.0669 13.4249 30.0669 10.5985C30.0818 8.93619 30.4584 7.30285 31.164 5.83942C31.6056 4.86226 32.1782 3.96627 32.862 3.18248C33.739 2.17695 34.787 1.37745 35.9444 0.830931C37.1018 0.284415 38.3452 0.00190677 39.6016 0L339.095 0C342.805 0 346.488 0.175182 350.119 0.437956C385.717 3.54684 418.957 21.5475 443.202 50.8464C467.448 80.1453 480.915 118.587 480.915 158.496C480.915 198.406 467.448 236.847 443.202 266.146C418.957 295.445 385.717 313.446 350.119 316.555C346.488 316.847 342.805 316.993 339.095 316.993H337.606L512 512Z" fill="#D6D6F5"/>
<path d="M203.546 332.818V512H78.733V317.022H189.388L203.546 332.818Z" fill="#D6D6F5"/>
<path d="M107.86 180.379C106.791 181.552 105.942 182.952 105.364 184.496C104.785 186.04 104.488 187.697 104.49 189.371C104.49 192.747 105.69 195.985 107.826 198.372C109.962 200.759 112.859 202.1 115.879 202.1H203.52V176.642H115.905C114.409 176.637 112.927 176.964 111.546 177.606C110.164 178.247 108.911 179.19 107.86 180.379Z" fill="#D6D6F5"/>
<path d="M203.52 152.757V127.299H188.944C185.921 127.33 183.032 128.7 180.911 131.108C178.791 133.516 177.612 136.766 177.633 140.145C177.633 143.516 178.829 146.749 180.959 149.135C183.09 151.522 185.98 152.866 188.996 152.874L203.52 152.757Z" fill="#D6D6F5"/>
<path d="M130.821 127.299H56.8685C55.365 127.303 53.877 127.639 52.4899 128.287C51.1028 128.935 49.8439 129.884 48.7856 131.077C47.7273 132.271 46.8905 133.686 46.323 135.242C45.7556 136.799 45.4688 138.465 45.4792 140.145C45.4792 143.521 46.6791 146.759 48.815 149.146C50.9509 151.533 53.8479 152.874 56.8685 152.874H130.821C133.842 152.874 136.739 151.533 138.875 149.146C141.011 146.759 142.211 143.521 142.211 140.145C142.211 136.769 141.011 133.531 138.875 131.144C136.739 128.757 133.842 127.416 130.821 127.416V127.299Z" fill="#D6D6F5"/>
</g>
<defs>
<filter id="filter0_i_64_80" x="0" y="0" width="512" height="512" filterUnits="userSpaceOnUse" color-interpolation-filters="sRGB">
<feFlood flood-opacity="0" result="BackgroundImageFix"/>
<feBlend mode="normal" in="SourceGraphic" in2="BackgroundImageFix" result="shape"/>
<feColorMatrix in="SourceAlpha" type="matrix" values="0 0 0 0 0 0 0 0 0 0 0 0 0 0 0 0 0 0 127 0" result="hardAlpha"/>
<feOffset/>
<feGaussianBlur stdDeviation="4"/>
<feComposite in2="hardAlpha" operator="arithmetic" k2="-1" k3="1"/>
<feColorMatrix type="matrix" values="0 0 0 0 0.678431 0 0 0 0 0.662745 0 0 0 0 0.937255 0 0 0 1 0"/>
<feBlend mode="normal" in2="shape" result="effect1_innerShadow_64_80"/>
</filter>
<clipPath id="clip0_64_80">
<rect width="512" height="512" fill="white"/>
</clipPath>
</defs>
</svg>
